<svg width="24" height="24" viewBox="0 0 24 24" fill="none" xmlns="http://www.w3.org/2000/svg">
<path d="M16.5 7.75H19.875V18.4375C19.875 19.2109 19.5938 19.8789 19.0312 20.4414C18.4688 21.0039 17.8359 21.25 17.0625 21.25H6.9375C6.16406 21.25 5.49609 21.0039 4.93359 20.4414C4.37109 19.8789 4.125 19.2109 4.125 18.4375V7.75H7.5C7.5 6.94141 7.67578 6.20312 8.09766 5.5C8.48438 4.79688 9.01172 4.26953 9.71484 3.84766C10.418 3.46094 11.1562 3.25 12 3.25C12.8086 3.25 13.5469 3.46094 14.25 3.84766C14.9531 4.26953 15.4805 4.79688 15.9023 5.5C16.2891 6.20312 16.5 6.94141 16.5 7.75ZM12 4.375C11.0508 4.375 10.2422 4.72656 9.60938 5.35938C8.94141 6.02734 8.625 6.83594 8.625 7.75H15.375C15.375 6.83594 15.0234 6.02734 14.3906 5.35938C13.7227 4.72656 12.9141 4.375 12 4.375ZM18.75 18.4375V8.875H16.5V10.5625C16.5 10.7383 16.4297 10.8789 16.3242 10.9844C16.2188 11.0898 16.0781 11.125 15.9375 11.125C15.7617 11.125 15.6211 11.0898 15.5156 10.9844C15.4102 10.8789 15.375 10.7383 15.375 10.5625V8.875H8.625V10.5625C8.625 10.7383 8.55469 10.8789 8.44922 10.9844C8.34375 11.0898 8.20312 11.125 8.0625 11.125C7.88672 11.125 7.74609 11.0898 7.64062 10.9844C7.53516 10.8789 7.5 10.7383 7.5 10.5625V8.875H5.25V18.4375C5.25 18.9297 5.39062 19.3164 5.74219 19.6328C6.05859 19.9844 6.44531 20.125 6.9375 20.125H17.0625C17.5195 20.125 17.9062 19.9844 18.2578 19.6328C18.5742 19.3164 18.75 18.9297 18.75 18.4375Z" fill="#E5DFD9"/>
</svg>
