<svg width="24" height="24" viewBox="0 0 24 24" fill="none" xmlns="http://www.w3.org/2000/svg">
<path d="M12 4.375C11.2969 4.375 10.6289 4.55078 10.0312 4.90234C9.39844 5.25391 8.94141 5.74609 8.58984 6.34375C8.23828 6.97656 8.0625 7.60938 8.0625 8.3125C8.0625 9.01562 8.23828 9.68359 8.58984 10.2812C8.94141 10.9141 9.39844 11.3711 10.0312 11.7227C10.6289 12.0742 11.2969 12.25 12 12.25C12.7031 12.25 13.3359 12.0742 13.9688 11.7227C14.5664 11.3711 15.0586 10.9141 15.4102 10.2812C15.7617 9.68359 15.9375 9.01562 15.9375 8.3125C15.9375 7.60938 15.7617 6.97656 15.4102 6.34375C15.0586 5.74609 14.5664 5.25391 13.9688 4.90234C13.3359 4.55078 12.7031 4.375 12 4.375ZM16.5 15.625C15.7617 15.625 15.1641 15.6602 14.7422 15.7305C14.4609 15.8008 14.1445 15.8711 13.8281 15.9414C13.5117 16.0469 13.2656 16.1172 13.125 16.1172C12.8086 16.1875 12.4219 16.1875 12 16.1875C11.543 16.1875 11.1562 16.1875 10.875 16.1172C10.6992 16.1172 10.4883 16.0469 10.207 15.9414C9.85547 15.8711 9.53906 15.8008 9.25781 15.7305C8.80078 15.6602 8.20312 15.625 7.5 15.625C6.55078 15.625 5.74219 15.9766 5.10938 16.6094C4.44141 17.2773 4.125 18.0859 4.125 19V20.125H19.875V19C19.875 18.0859 19.5234 17.2773 18.8906 16.6094C18.2227 15.9766 17.4141 15.625 16.5 15.625ZM12 3.25C12.9141 3.25 13.7578 3.49609 14.5312 3.95312C15.3047 4.41016 15.9023 5.00781 16.3594 5.78125C16.8164 6.55469 17.0625 7.39844 17.0625 8.3125C17.0625 9.22656 16.8164 10.0703 16.3594 10.8438C15.9023 11.6172 15.3047 12.25 14.5312 12.707C13.7578 13.1641 12.9141 13.375 12 13.375C11.0859 13.375 10.2422 13.1641 9.46875 12.707C8.69531 12.25 8.0625 11.6172 7.60547 10.8438C7.14844 10.0703 6.9375 9.22656 6.9375 8.3125C6.9375 7.39844 7.14844 6.55469 7.60547 5.78125C8.0625 5.00781 8.69531 4.41016 9.46875 3.95312C10.2422 3.49609 11.0859 3.25 12 3.25ZM16.5 14.5C17.3086 14.5 18.0469 14.7109 18.75 15.0977C19.4531 15.5195 19.9805 16.0469 20.4023 16.75C20.7891 17.4531 21 18.1914 21 19V20.125C21 20.4414 20.8594 20.7227 20.6484 20.9336C20.4375 21.1445 20.1562 21.25 19.875 21.25H4.125C3.80859 21.25 3.52734 21.1445 3.31641 20.9336C3.10547 20.7227 3 20.4414 3 20.125V19C3 18.1914 3.17578 17.4531 3.59766 16.75C3.98438 16.0469 4.51172 15.5195 5.21484 15.0977C5.91797 14.7109 6.65625 14.5 7.46484 14.5C8.27344 14.5 8.94141 14.5352 9.43359 14.6055C9.71484 14.6758 10.0312 14.7461 10.3828 14.8164C10.6289 14.9219 10.8398 14.9922 11.0156 14.9922C11.2617 15.0625 11.5781 15.0625 12 15.0625C12.3867 15.0625 12.7031 15.0625 12.9844 14.9922C13.125 14.9922 13.3359 14.9219 13.6172 14.8164C13.9688 14.7461 14.2852 14.6758 14.5664 14.6055C15.0586 14.5352 15.6914 14.5 16.5 14.5Z" fill="#E5DFD9"/>
</svg>
