<svg width="24" height="24" viewBox="0 0 24 24" fill="none" xmlns="http://www.w3.org/2000/svg">
<path d="M17.0625 3.25C17.5195 3.25 17.9062 3.42578 18.2578 3.74219C18.5742 4.09375 18.75 4.48047 18.75 4.9375V21.25L12 17.3125L5.25 21.25V4.9375C5.25 4.48047 5.39062 4.09375 5.74219 3.74219C6.05859 3.42578 6.44531 3.25 6.9375 3.25H17.0625ZM17.625 19.2812V4.9375C17.625 4.79688 17.5547 4.65625 17.4492 4.55078C17.3438 4.44531 17.2031 4.375 17.0625 4.375H6.9375C6.76172 4.375 6.62109 4.44531 6.51562 4.55078C6.41016 4.65625 6.375 4.79688 6.375 4.9375V19.2812L12 16.0117L17.625 19.2812Z" fill="#E5DFD9"/>
</svg>
