<svg width="24" height="24" viewBox="0 0 24 24" fill="none" xmlns="http://www.w3.org/2000/svg">
<path d="M20.8945 20.1953C20.9648 20.2656 21 20.3711 21 20.4766C21 20.6172 20.9648 20.7227 20.8945 20.793L20.543 21.1094C20.4375 21.2148 20.332 21.25 20.2266 21.25C20.0859 21.25 20.0156 21.2148 19.9453 21.1094L15.4102 16.5742C15.3047 16.5039 15.2695 16.4336 15.2695 16.293V15.9414C14.6016 16.5742 13.8281 17.0312 12.9844 17.3828C12.1406 17.7344 11.2266 17.875 10.3125 17.875C8.97656 17.875 7.74609 17.5586 6.62109 16.8906C5.49609 16.2578 4.61719 15.3789 3.98438 14.2539C3.31641 13.1289 3 11.8984 3 10.5625C3 9.22656 3.31641 8.03125 3.98438 6.90625C4.61719 5.78125 5.49609 4.90234 6.62109 4.23438C7.74609 3.60156 8.97656 3.25 10.3125 3.25C11.6484 3.25 12.8438 3.60156 13.9688 4.23438C15.0938 4.90234 15.9727 5.78125 16.6406 6.90625C17.2734 8.03125 17.625 9.22656 17.625 10.5625C17.625 11.5117 17.4492 12.4258 17.0977 13.2695C16.7461 14.1133 16.2891 14.8867 15.6914 15.5195H16.043C16.1484 15.5195 16.2539 15.5898 16.3594 15.6602L20.8945 20.1953ZM10.3125 16.75C11.4375 16.75 12.457 16.5039 13.4062 15.9414C14.3555 15.3789 15.0938 14.6406 15.6562 13.6914C16.2188 12.7422 16.5 11.6875 16.5 10.5625C16.5 9.4375 16.2188 8.41797 15.6562 7.46875C15.0938 6.51953 14.3555 5.78125 13.4062 5.21875C12.457 4.65625 11.4375 4.375 10.3125 4.375C9.1875 4.375 8.13281 4.65625 7.18359 5.21875C6.23438 5.78125 5.49609 6.51953 4.93359 7.46875C4.37109 8.41797 4.125 9.4375 4.125 10.5625C4.125 11.6875 4.37109 12.7422 4.93359 13.6914C5.49609 14.6406 6.23438 15.3789 7.18359 15.9414C8.13281 16.5039 9.1875 16.75 10.3125 16.75Z" fill="#E5DFD9"/>
</svg>
