<svg width="27" height="35" viewBox="0 0 27 35" fill="none" xmlns="http://www.w3.org/2000/svg">
<path d="M23.0529 0.188966C23.9204 0.188966 24.6544 0.522605 25.3216 1.12315C25.9222 1.79043 26.2558 2.52444 26.2558 3.3919V34.3536L13.4441 26.8801L0.63236 34.3536V3.3919C0.63236 2.52444 0.899271 1.79043 1.56655 1.12315C2.1671 0.522605 2.9011 0.188966 3.83529 0.188966H23.0529ZM24.1205 30.6168V3.3919C24.1205 3.12499 23.9871 2.85808 23.7869 2.65789C23.5867 2.45771 23.3198 2.32425 23.0529 2.32425H3.83529C3.50165 2.32425 3.23474 2.45771 3.03456 2.65789C2.83438 2.85808 2.76765 3.12499 2.76765 3.3919V30.6168L13.4441 24.4111L24.1205 30.6168Z" fill="#0C0C0C"/>
</svg>
